<?xml version="1.0" encoding="UTF-8" standalone="no"?>
<!-- Created with Inkscape (http://www.inkscape.org/) -->

<svg
   width="512"
   height="512"
   viewBox="0 0 135.46666 135.46666"
   version="1.1"
   id="svg1"
   xmlns="http://www.w3.org/2000/svg"
   xmlns:svg="http://www.w3.org/2000/svg">
  <defs
     id="defs1" />
  <g
     id="layer1"
     transform="translate(-10.054174,-176.74166)">
    <g
       id="g7"
       transform="translate(0.41515283)">
      <path
         style="font-weight:900;font-size:85.4176px;font-family:THICCCBOI;-inkscape-font-specification:'THICCCBOI Heavy';letter-spacing:-1.83465px;fill:#111827;stroke-width:0;stroke-linejoin:bevel;stroke-miterlimit:0;paint-order:stroke markers fill"
         d="m 23.86597,232.39775 h 5.831978 v 9.01907 h 9.63991 v -9.01907 h 5.831983 v 24.18898 h -5.831983 v -9.60636 h -9.63991 v 9.60636 H 23.86597 Z m 32.230989,6.4274 q 1.886825,0 3.464881,0.72566 1.612375,0.69112 2.744461,1.93516 1.166396,1.20936 1.818206,2.86806 0.651802,1.65871 0.651802,3.5938 0,0.51838 -0.0343,1.00219 -0.03428,0.48376 -0.137216,0.93297 h -12.07563 q 0.583194,1.27857 1.61237,1.86608 1.063471,0.58736 2.401397,0.58736 0.891955,0 1.749596,-0.34552 0.891942,-0.34558 1.44084,-1.03672 l 4.185306,2.48802 q -1.235012,1.76237 -3.121832,2.69534 -1.886813,0.93299 -4.356818,0.93299 -2.161277,0 -3.910859,-0.69109 -1.749598,-0.72571 -2.984605,-1.93509 -1.200705,-1.24404 -1.886814,-2.90272 -0.651811,-1.65865 -0.651811,-3.59381 0,-1.93509 0.651811,-3.5938 0.686109,-1.6587 1.886814,-2.86806 1.2007,-1.24404 2.847379,-1.93516 1.680983,-0.72566 3.705018,-0.72566 z m 3.499193,6.80741 q -0.205844,-1.00207 -1.235012,-1.48584 -1.02918,-0.51837 -2.332791,-0.51837 -0.686113,0 -1.337923,0.17291 -0.6175,0.13817 -1.132086,0.41466 -0.480284,0.24187 -0.789042,0.62193 -0.308746,0.38007 -0.343051,0.79471 z m 13.534313,10.95417 q -0.789038,0.10377 -1.509456,0.17292 -0.686114,0.0686 -1.337918,0.0686 -1.166398,0 -2.092664,-0.2764 -0.891937,-0.27642 -1.543755,-0.93302 -0.617492,-0.69107 -0.960554,-1.83147 -0.308759,-1.14027 -0.308759,-2.86806 v -18.5219 h 5.52323 v 18.10722 q 0,0.76025 0.480289,0.96754 0.480271,0.1728 1.749587,0 z m 28.182855,0 h -5.557496 v -10.33208 q 0,-0.72566 -0.24015,-1.20947 -0.24013,-0.51838 -0.617501,-0.82926 -0.343064,-0.31111 -0.823342,-0.41466 -0.445972,-0.13831 -0.926259,-0.13831 -0.994862,0 -1.715275,0.72568 -0.686128,0.72568 -0.686128,2.48802 v 9.71008 h -5.523215 v -10.33208 q 0,-0.72566 -0.240141,-1.20947 -0.240142,-0.51838 -0.617506,-0.82926 -0.343055,-0.31111 -0.823333,-0.41466 -0.445982,-0.13831 -0.926261,-0.13831 -0.99487,0 -1.715284,0.72568 -0.686119,0.72568 -0.686119,2.48802 v 9.71008 h -5.523221 v -17.27777 h 5.523221 v 0.93297 q 0.78904,-0.622 1.749597,-1.00212 0.960556,-0.41466 2.058345,-0.41466 0.617496,0 1.337924,0.13827 0.720417,0.10364 1.440835,0.4146 0.754733,0.31106 1.440847,0.8293 0.72042,0.51837 1.269313,1.31319 0.857638,-1.10581 2.126947,-1.90058 1.303626,-0.79478 2.915991,-0.79478 0.926265,0 2.092655,0.31097 1.16639,0.31108 2.1956,1.14037 1.06346,0.7948 1.749536,2.24608 0.72042,1.45145 0.72042,3.73208 z m 3.34556,-12.30183 h -2.53858 v -4.97594 h 2.53858 v -1.20947 q 0,-1.86602 0.41172,-3.07545 0.41168,-1.20949 1.20058,-1.90056 0.78907,-0.69106 1.88683,-0.96758 1.13205,-0.27645 2.53861,-0.27645 1.37232,0 2.9503,0.20733 v 5.07966 q -0.7889,-0.0686 -1.44076,-0.0686 -0.65188,-0.0346 -1.09785,0.10366 -0.44591,0.13823 -0.68613,0.44922 -0.24004,0.27639 -0.24004,0.82936 v 0.82932 h 3.43054 v 4.97597 h -3.43054 v 12.30182 h -5.52326 z m 10.37824,-4.97594 h 5.55752 v 10.33212 q 0,0.72566 0.24018,1.24397 0.24009,0.48381 0.58319,0.79486 0.37736,0.311 0.85767,0.44923 0.48026,0.10357 0.92616,0.10357 0.99497,0 1.71532,-0.72555 0.72047,-0.72573 0.72047,-2.48807 v -9.71013 h 5.52319 v 17.27777 h -5.52319 v -0.96749 q -0.78907,0.6566 -1.7839,1.03668 -0.96058,0.41462 -2.05836,0.41462 -0.92622,0 -2.09266,-0.31089 -1.16639,-0.31106 -2.22984,-1.10591 -1.02916,-0.82928 -1.74963,-2.28064 -0.68612,-1.45128 -0.68612,-3.73202 z m 25.91873,17.27777 q -0.78909,0.10377 -1.50946,0.17292 -0.68608,0.0686 -1.33783,0.0686 -1.16643,0 -2.09278,-0.2764 -0.89191,-0.27642 -1.54369,-0.93302 -0.61754,-0.69107 -0.9606,-1.83147 -0.30873,-1.14027 -0.30873,-2.86806 v -18.5219 h 5.5232 v 18.10722 q 0,0.76025 0.48033,0.96754 0.48025,0.1728 1.74956,0 z"
         id="text1-7"
         aria-label="Helmful" />
      <path
         style="display:inline;fill:#2663eb;fill-opacity:1;stroke:#0c0000;stroke-width:0;stroke-linecap:round;stroke-linejoin:bevel;stroke-miterlimit:2.6;stroke-dasharray:none;stroke-opacity:1;paint-order:normal"
         d="m 22.656717,232.39905 v 24.18509 h -8.867858"
         id="path1-2-8" />
    </g>
  </g>
</svg>
