<?xml version="1.0" encoding="UTF-8" standalone="no"?>

<svg
   width="512.00214"
   height="101.42498"
   viewBox="0 0 135.46723 26.835359"
   version="1.1"
   id="svg1"
   xmlns="http://www.w3.org/2000/svg"
   xmlns:svg="http://www.w3.org/2000/svg">
  <defs
     id="defs1" />
  <g
     id="HelmFulLogo"
     transform="translate(-10.054174,-176.74166)">
    <path
       style="fill:#111827;"
       d="m 20.789027,177.29383 h 6.212634 v 9.60772 h 10.269122 v -9.60772 h 6.212636 v 25.76784 H 37.270783 V 192.82815 H 27.001661 v 10.23352 h -6.212634 z m 34.334732,6.84688 q 2.009971,0 3.691036,0.77303 1.717615,0.73623 2.923596,2.06144 1.242526,1.28838 1.936877,3.05532 0.694351,1.76694 0.694351,3.82837 0,0.55217 -0.03654,1.06752 -0.03654,0.51537 -0.146176,0.99391 H 51.32309 q 0.621265,1.36202 1.717615,1.98781 1.132889,0.62578 2.55814,0.62578 0.950172,0 1.863791,-0.36811 0.950167,-0.36811 1.534888,-1.10434 l 4.458478,2.65042 q -1.315616,1.87737 -3.325587,2.87127 -2.009971,0.99389 -4.641204,0.99389 -2.30233,0 -4.166121,-0.73622 -1.86379,-0.77303 -3.179406,-2.06143 -1.279071,-1.3252 -2.009969,-3.09213 -0.694356,-1.76694 -0.694356,-3.82837 0,-2.06143 0.694356,-3.82837 0.730898,-1.76694 2.009969,-3.05532 1.27907,-1.32521 3.033229,-2.06144 1.790698,-0.77303 3.946851,-0.77303 z m 3.727583,7.25181 q -0.219274,-1.06753 -1.31562,-1.58288 -1.096349,-0.55217 -2.485052,-0.55217 -0.730901,0 -1.425252,0.18406 -0.65781,0.14723 -1.205982,0.44173 -0.51163,0.25768 -0.840534,0.6626 -0.328906,0.40493 -0.365447,0.84666 z m 14.41771,11.66915 q -0.840535,0.11043 -1.60798,0.18405 -0.730895,0.0736 -1.425247,0.0736 -1.242528,0 -2.229246,-0.29449 -0.950161,-0.29449 -1.64452,-0.9939 -0.657806,-0.73624 -1.023252,-1.951 -0.328906,-1.21477 -0.328906,-3.05533 v -19.7308 h 5.883729 v 19.28906 q 0,0.80986 0.51163,1.03072 0.51163,0.18406 1.863792,0 z m 30.022398,0 h -5.920272 v -11.00655 q 0,-0.77303 -0.255816,-1.28839 -0.255812,-0.55217 -0.657806,-0.88347 -0.365453,-0.3313 -0.877083,-0.44173 -0.475078,-0.14725 -0.986709,-0.14725 -1.059802,0 -1.827244,0.77304 -0.7309,0.77304 -0.7309,2.6504 v 10.34395 h -5.883731 v -11.00655 q 0,-0.77303 -0.255813,-1.28839 -0.255812,-0.55217 -0.65781,-0.88347 -0.365449,-0.3313 -0.877076,-0.44173 -0.475086,-0.14725 -0.986714,-0.14725 -1.059805,0 -1.827244,0.77304 -0.7309,0.77304 -0.7309,2.6504 v 10.34395 h -5.883729 v -18.4056 h 5.883729 v 0.9939 q 0.840533,-0.6626 1.86379,-1.06752 1.023258,-0.44174 2.192695,-0.44174 0.657808,0 1.425252,0.14724 0.767443,0.11045 1.534884,0.44174 0.803993,0.3313 1.534889,0.88347 0.767442,0.55217 1.35216,1.39883 0.913623,-1.17797 2.265784,-2.02462 1.388705,-0.84666 3.106317,-0.84666 0.986717,0 2.22924,0.33131 1.242528,0.3313 2.338877,1.21476 1.13289,0.84667 1.86379,2.39273 0.76744,1.54608 0.76744,3.97561 z m 3.5639,-13.10479 h -2.70432 v -5.30081 h 2.70432 v -1.28839 q 0,-1.98781 0.43854,-3.27619 0.43854,-1.2884 1.27908,-2.02462 0.84052,-0.73623 2.00997,-1.03072 1.20597,-0.29449 2.70432,-0.29449 1.46179,0 3.14285,0.22087 v 5.41125 q -0.84052,-0.0736 -1.53487,-0.0736 -0.69437,-0.0368 -1.16944,0.11043 -0.47508,0.14725 -0.7309,0.47854 -0.25581,0.29449 -0.25581,0.88347 v 0.88347 h 3.65447 v 5.30081 h -3.65447 v 13.10479 h -5.88374 z m 11.05565,-5.30081 h 5.92028 v 11.00655 q 0,0.77303 0.25582,1.3252 0.25581,0.51536 0.62126,0.84666 0.40199,0.3313 0.91362,0.47854 0.51163,0.11044 0.98671,0.11044 1.0598,0 1.82725,-0.77303 0.76744,-0.77305 0.76744,-2.65042 v -10.34394 h 5.88372 v 18.4056 h -5.88372 v -1.03071 q -0.84053,0.69941 -1.90033,1.10433 -1.02326,0.44173 -2.1927,0.44173 -0.98671,0 -2.22924,-0.3313 -1.24252,-0.3313 -2.37542,-1.17795 -1.09634,-0.88347 -1.8638,-2.42954 -0.73089,-1.54607 -0.73089,-3.97561 z m 27.61047,18.4056 q -0.84055,0.11043 -1.60798,0.18405 -0.73089,0.0736 -1.42525,0.0736 -1.24252,0 -2.22924,-0.29449 -0.95017,-0.29449 -1.64451,-0.9939 -0.65782,-0.73624 -1.02328,-1.951 -0.3289,-1.21477 -0.3289,-3.05533 v -19.7308 h 5.88374 v 19.28906 q 0,0.80986 0.51163,1.03072 0.51162,0.18406 1.86379,0 z"
       id="text1-7"
       aria-label="Helmful" />
    <path
       style="display:inline;fill:#2663eb;fill-opacity:1;stroke:#0c0000;stroke-width:0;stroke-linecap:round;stroke-linejoin:bevel;stroke-miterlimit:2.6;stroke-dasharray:none;stroke-opacity:1;paint-order:normal"
       d="m 19.500843,177.29519 v 25.76364 h -9.446669"
       id="path1-2-8" />
  </g>
</svg>
