<?xml version="1.0" encoding="UTF-8" standalone="no"?>
<svg
   viewBox="0 0 135.46665 25.580368"
   version="1.1"
   id="HelmFulLogoWhite"
   xmlns="http://www.w3.org/2000/svg"
   xmlns:svg="http://www.w3.org/2000/svg">
  <defs  />
  <g
     transform="translate(-11.828775,-232.38015)">
    <g
       transform="matrix(1.0674618,0,0,1.0674618,-0.86114619,-15.678046)">
      <path
         style="display:inline;fill:#2663eb;fill-opacity:1;stroke:#0c0000;stroke-width:0;stroke-linecap:round;stroke-linejoin:bevel;stroke-miterlimit:2.6;stroke-dasharray:none;stroke-opacity:1;paint-order:normal"
         d="m 21.293496,232.85971 v 23.041 h -9.405557"
         id="path1-2-8" />
      <path
         d="m 23.607785,232.85859 h 5.595943 v 8.59143 h 9.249764 v -8.59143 h 5.595942 v 23.04213 h -5.595942 v -9.15103 h -9.249764 v 9.15103 h -5.595943 z"
         id="text7"
         style="fill:#ffffff;"/>
      <path
         d="m 54.591302,238.99771 q 1.810453,0 3.324648,0.69125 1.547114,0.65835 2.633385,1.84338 1.119189,1.1521 1.711701,2.73214 0.625428,1.58002 0.625428,3.39049 0,0.46083 -0.06583,0.85584 -0.03291,0.39501 -0.09875,0.82293 H 50.575387 q 0.493761,1.41545 1.645866,2.20547 1.152106,0.79001 2.732137,0.79001 1.053354,0 2.007956,-0.42792 0.954601,-0.42794 1.514196,-1.15211 l 3.587986,2.10671 q -1.152105,1.67878 -2.995475,2.56755 -1.810452,0.88875 -4.180498,0.88875 -2.07379,0 -3.752573,-0.65834 -1.645866,-0.65834 -2.830889,-1.81045 -1.152106,-1.18502 -1.810452,-2.76505 -0.625429,-1.58004 -0.625429,-3.42339 0,-1.84338 0.625429,-3.42341 0.658346,-1.58003 1.810452,-2.73213 1.152107,-1.18503 2.732137,-1.84338 1.612948,-0.65834 3.555069,-0.65834 z m 3.884243,6.68221 q -0.230422,-1.25085 -1.34961,-1.94213 -1.086271,-0.69126 -2.633384,-0.69126 -0.790016,0 -1.514197,0.23042 -0.724181,0.19751 -1.283775,0.5596 -0.526677,0.32918 -0.85585,0.82293 -0.329173,0.46085 -0.36209,1.02044 z M 71.2145,255.88428 q -0.658346,0.0988 -1.316693,0.16459 -0.625429,0.0659 -1.185024,0.0659 -0.987519,0 -1.777533,-0.23042 -0.790016,-0.23042 -1.382529,-0.82292 -0.559593,-0.59251 -0.855849,-1.58004 -0.296255,-0.98751 -0.296255,-2.50171 v -18.13744 h 4.707174 v 17.84118 q 0,0.7571 0.460843,0.92169 0.493759,0.13167 1.645866,-0.0329 z m 27.979717,0 h -4.674258 v -9.84227 q 0,-0.85585 -0.296256,-1.41544 -0.263339,-0.59251 -0.691264,-0.9217 -0.427924,-0.36209 -0.954601,-0.49375 -0.526676,-0.13167 -1.053355,-0.13167 -0.526677,0 -1.020435,0.1975 -0.49376,0.16459 -0.888768,0.59251 -0.362091,0.39502 -0.592511,1.08628 -0.230422,0.69126 -0.230422,1.7117 v 9.21684 h -4.707174 v -9.84227 q 0,-0.85585 -0.296257,-1.41544 -0.263338,-0.59251 -0.691263,-0.9217 -0.427925,-0.36209 -0.954602,-0.49375 -0.526678,-0.13167 -1.053355,-0.13167 -0.526676,0 -1.020436,0.1975 -0.493759,0.16459 -0.888767,0.59251 -0.362091,0.39502 -0.592511,1.08628 -0.230422,0.69126 -0.230422,1.7117 v 9.21684 h -4.707176 v -16.45865 h 4.707176 v 1.08627 q 0.757099,-0.65835 1.744618,-1.08627 1.020437,-0.46084 2.172542,-0.46084 0.592512,0 1.316692,0.13166 0.724181,0.13168 1.448361,0.46085 0.757099,0.29625 1.415445,0.82293 0.691264,0.52669 1.21794,1.34961 0.790016,-1.08627 2.073791,-1.90921 1.283776,-0.85584 2.929641,-0.85584 0.888767,0 2.007956,0.29625 1.152105,0.29626 2.139624,1.08627 0.98752,0.75711 1.678783,2.13963 0.691264,1.38252 0.691264,3.55507 z m 4.312173,-12.27815 h -2.60048 v -4.1805 h 2.60048 v -1.31669 q 0,-1.71171 0.36209,-2.83089 0.395,-1.11918 1.08626,-1.74462 0.69126,-0.65835 1.7117,-0.88877 1.02045,-0.26333 2.30421,-0.26333 0.65836,0 1.3167,0.0659 0.65834,0.0329 1.41544,0.0988 v 4.31216 q -0.82293,-0.0988 -1.48127,-0.0988 -0.65835,0 -1.1192,0.16459 -0.46085,0.13167 -0.69126,0.49377 -0.23042,0.36209 -0.23042,0.98752 v 1.02043 h 3.48923 v 4.1805 h -3.48923 v 12.27815 h -4.67425 z m 10.30311,-4.1805 h 4.67425 v 9.84228 q 0,0.85584 0.26335,1.41544 0.29625,0.5596 0.72418,0.92169 0.42793,0.32917 0.9546,0.49376 0.55959,0.13166 1.05335,0.13166 0.52668,0 1.02043,-0.16459 0.52669,-0.1975 0.9217,-0.62542 0.395,-0.42792 0.62542,-1.08627 0.26334,-0.69127 0.26334,-1.7117 v -9.21685 h 4.67426 v 16.45865 h -4.67426 v -1.1521 q -0.79002,0.69127 -1.81046,1.1521 -1.02043,0.46085 -2.17253,0.46085 -0.88877,0 -2.04088,-0.29626 -1.11919,-0.29626 -2.1067,-1.05335 -0.98753,-0.79002 -1.67878,-2.17255 -0.69127,-1.38252 -0.69127,-3.55506 z m 24.98421,16.45865 q -0.65834,0.0988 -1.31668,0.16459 -0.62543,0.0659 -1.18502,0.0659 -0.98753,0 -1.77755,-0.23042 -0.79001,-0.23042 -1.38252,-0.82292 -0.55959,-0.59251 -0.85585,-1.58004 -0.29626,-0.98751 -0.29626,-2.50171 v -18.13744 h 4.70719 v 17.84118 q 0,0.7571 0.46083,0.92169 0.49376,0.13167 1.64586,-0.0329 z"
         style="fill:#ffffff;"/>
    </g>
  </g>
</svg>
