<?xml version="1.0" encoding="UTF-8" standalone="no"?>
<svg
   width="368.63049"
   zoomAndPan="magnify"
   viewBox="0 0 276.47287 62.164059"
   height="82.885414"
   preserveAspectRatio="xMidYMid"
   version="1.0"
   id="svg37"
   sodipodi:docname="brandis (1).svg"
   inkscape:version="1.3.2 (091e20e, 2023-11-25)"
   xmlns:inkscape="http://www.inkscape.org/namespaces/inkscape"
   xmlns:sodipodi="http://sodipodi.sourceforge.net/DTD/sodipodi-0.dtd"
   xmlns="http://www.w3.org/2000/svg"
   xmlns:svg="http://www.w3.org/2000/svg">
  <sodipodi:namedview
     id="namedview37"
     pagecolor="#ffffff"
     bordercolor="#000000"
     borderopacity="0.25"
     inkscape:showpageshadow="2"
     inkscape:pageopacity="0.0"
     inkscape:pagecheckerboard="0"
     inkscape:deskcolor="#d1d1d1"
     inkscape:zoom="1.5733333"
     inkscape:cx="178.60169"
     inkscape:cy="41.949153"
     inkscape:window-width="2032"
     inkscape:window-height="983"
     inkscape:window-x="2453"
     inkscape:window-y="429"
     inkscape:window-maximized="0"
     inkscape:current-layer="svg37" />
  <defs
     id="defs4">
    <clipPath
       id="1a908ac6be">
      <path
         d="m 241.75,24.78125 h 61.79297 V 87 H 241.75 Z m 0,0"
         clip-rule="nonzero"
         id="path1" />
    </clipPath>
    <clipPath
       id="cfbf550b8f">
      <path
         d="m 249.21484,24.78125 h 46.86328 c 4.1211,0 7.46485,3.339844 7.46485,7.464844 v 47.234375 c 0,4.121093 -3.34375,7.464843 -7.46485,7.464843 h -46.86328 c -4.12109,0 -7.46484,-3.34375 -7.46484,-7.464843 V 32.246094 c 0,-4.125 3.34375,-7.464844 7.46484,-7.464844 z m 0,0"
         clip-rule="nonzero"
         id="path2" />
    </clipPath>
    <clipPath
       id="7ffc2d7a65">
      <path
         d="M 0.75,0.78125 H 62.542969 V 62.972656 H 0.75 Z m 0,0"
         clip-rule="nonzero"
         id="path3" />
    </clipPath>
    <clipPath
       id="13a9e7e1f8">
      <path
         d="m 8.214844,0.78125 h 46.863281 c 4.121094,0 7.464844,3.339844 7.464844,7.464844 v 47.234375 c 0,4.121093 -3.34375,7.464843 -7.464844,7.464843 H 8.214844 C 4.09375,62.945312 0.75,59.601562 0.75,55.480469 V 8.246094 c 0,-4.125 3.34375,-7.464844 7.464844,-7.464844 z m 0,0"
         clip-rule="nonzero"
         id="path4" />
    </clipPath>
    <clipPath
       id="1f80972240">
      <rect
         x="0"
         width="63"
         y="0"
         height="63"
         id="rect4" />
    </clipPath>
  </defs>
  <g
     clip-path="url(#1a908ac6be)"
     id="g10"
     transform="translate(-27.070099,-24.78125)">
    <g
       clip-path="url(#cfbf550b8f)"
       id="g9">
      <g
         transform="translate(241,24)"
         id="g8">
        <g
           clip-path="url(#1f80972240)"
           id="g7">
          <g
             clip-path="url(#7ffc2d7a65)"
             id="g6">
            <g
               clip-path="url(#13a9e7e1f8)"
               id="g5">
              <path
                 fill="#000000"
                 d="M 0.75,0.78125 H 62.542969 V 63.054688 H 0.75 Z m 0,0"
                 fill-opacity="1"
                 fill-rule="nonzero"
                 id="path5" />
            </g>
          </g>
        </g>
      </g>
    </g>
  </g>
  <g
     fill="#000000"
     fill-opacity="1"
     id="g13"
     transform="translate(-27.070099,-24.78125)">
    <g
       transform="translate(22.148224,73.270241)"
       id="g12">
      <g
         id="g11">
        <path
           d="m 19.984375,0.21875 c -2.84375,0 -5.402344,-0.664062 -7.671875,-2 C 10.050781,-3.113281 8.265625,-4.925781 6.953125,-7.21875 5.640625,-9.519531 4.960938,-12.113281 4.921875,-15 v -24.96875 c 0,-0.84375 0.265625,-1.519531 0.796875,-2.03125 0.53125,-0.507812 1.195312,-0.765625 2,-0.765625 0.84375,0 1.519531,0.257813 2.03125,0.765625 0.507812,0.511719 0.765625,1.1875 0.765625,2.03125 v 14.78125 c 1.269531,-1.53125 2.804687,-2.742188 4.609375,-3.640625 1.8125,-0.894531 3.796875,-1.34375 5.953125,-1.34375 2.664063,0 5.054687,0.667969 7.171875,2 2.113281,1.335937 3.78125,3.140625 5,5.421875 1.226562,2.28125 1.84375,4.867188 1.84375,7.75 0,2.886719 -0.667969,5.480469 -2,7.78125 -1.335938,2.292969 -3.132812,4.105469 -5.390625,5.4375 -2.261719,1.335938 -4.835937,2 -7.71875,2 z m 0,-4.921875 c 1.863281,0 3.523437,-0.445313 4.984375,-1.34375 1.457031,-0.894531 2.613281,-2.125 3.46875,-3.6875 0.863281,-1.570313 1.296875,-3.328125 1.296875,-5.265625 0,-1.96875 -0.433594,-3.71875 -1.296875,-5.25 -0.855469,-1.539062 -2.011719,-2.753906 -3.46875,-3.640625 -1.460938,-0.894531 -3.121094,-1.34375 -4.984375,-1.34375 -1.824219,0 -3.476563,0.449219 -4.953125,1.34375 -1.480469,0.886719 -2.640625,2.101563 -3.484375,3.640625 -0.835937,1.53125 -1.25,3.28125 -1.25,5.25 0,1.9375 0.414063,3.695312 1.25,5.265625 0.84375,1.5625 2.003906,2.792969 3.484375,3.6875 1.476562,0.898437 3.128906,1.34375 4.953125,1.34375 z m 0,0"
           id="path10" />
      </g>
    </g>
  </g>
  <g
     fill="#000000"
     fill-opacity="1"
     id="g16"
     transform="translate(-27.070099,-24.78125)">
    <g
       transform="translate(59.270431,73.270241)"
       id="g15">
      <g
         id="g14">
        <path
           d="m 7.609375,-18.71875 c 0,-2.195312 0.535156,-4.160156 1.609375,-5.890625 1.082031,-1.726563 2.535156,-3.101563 4.359375,-4.125 1.820313,-1.03125 3.828125,-1.546875 6.015625,-1.546875 2.195312,0 3.832031,0.359375 4.90625,1.078125 1.070312,0.710937 1.484375,1.558594 1.234375,2.546875 -0.117187,0.511719 -0.328125,0.902344 -0.640625,1.171875 -0.304688,0.273437 -0.65625,0.445313 -1.0625,0.515625 -0.398438,0.07422 -0.835938,0.05859 -1.3125,-0.04687 -2.335938,-0.476563 -4.433594,-0.515625 -6.296875,-0.109375 -1.867187,0.398438 -3.335937,1.140625 -4.40625,2.234375 -1.074219,1.09375 -1.609375,2.484375 -1.609375,4.171875 z M 7.671875,0 C 6.785156,0 6.101562,-0.226562 5.625,-0.6875 5.15625,-1.144531 4.921875,-1.828125 4.921875,-2.734375 v -24.46875 c 0,-0.882813 0.234375,-1.5625 0.703125,-2.03125 0.476562,-0.476563 1.160156,-0.71875 2.046875,-0.71875 0.90625,0 1.585937,0.230469 2.046875,0.6875 0.457031,0.460937 0.6875,1.148437 0.6875,2.0625 v 24.46875 c 0,0.875 -0.230469,1.554687 -0.6875,2.03125 C 9.257812,-0.234375 8.578125,0 7.671875,0 Z m 0,0"
           id="path13" />
      </g>
    </g>
  </g>
  <g
     fill="#000000"
     fill-opacity="1"
     id="g19"
     transform="translate(-27.070099,-24.78125)">
    <g
       transform="translate(82.321153,73.270241)"
       id="g18">
      <g
         id="g17">
        <path
           d="m 17.40625,0.21875 c -2.667969,0 -5.058594,-0.664062 -7.171875,-2 C 8.117188,-3.113281 6.445312,-4.921875 5.21875,-7.203125 4,-9.484375 3.390625,-12.066406 3.390625,-14.953125 c 0,-2.875 0.664063,-5.460937 2,-7.765625 1.332031,-2.300781 3.140625,-4.117188 5.421875,-5.453125 2.28125,-1.332031 4.84375,-2 7.6875,-2 2.851562,0 5.410156,0.667969 7.671875,2 2.257813,1.335937 4.054687,3.152344 5.390625,5.453125 1.332031,2.304688 2,4.890625 2,7.765625 h -2.140625 c 0,2.886719 -0.609375,5.46875 -1.828125,7.75 -1.21875,2.28125 -2.890625,4.089844 -5.015625,5.421875 -2.117187,1.335938 -4.507813,2 -7.171875,2 z M 18.5,-4.703125 c 1.863281,0 3.523438,-0.445313 4.984375,-1.34375 1.457031,-0.894531 2.609375,-2.117187 3.453125,-3.671875 0.84375,-1.550781 1.265625,-3.296875 1.265625,-5.234375 0,-1.96875 -0.421875,-3.726563 -1.265625,-5.28125 -0.84375,-1.550781 -1.996094,-2.769531 -3.453125,-3.65625 -1.460937,-0.894531 -3.121094,-1.34375 -4.984375,-1.34375 -1.824219,0 -3.476562,0.449219 -4.953125,1.34375 -1.480469,0.886719 -2.648437,2.105469 -3.5,3.65625 -0.855469,1.554687 -1.28125,3.3125 -1.28125,5.28125 0,1.9375 0.425781,3.683594 1.28125,5.234375 0.851563,1.554688 2.019531,2.777344 3.5,3.671875 1.476563,0.898437 3.128906,1.34375 4.953125,1.34375 z M 30.765625,0.0625 c -0.804687,0 -1.46875,-0.265625 -2,-0.796875 -0.523437,-0.53125 -0.78125,-1.195313 -0.78125,-2 v -8.375 l 1.03125,-5.8125 4.546875,1.96875 v 12.21875 c 0,0.804687 -0.265625,1.46875 -0.796875,2 -0.53125,0.53125 -1.199219,0.796875 -2,0.796875 z m 0,0"
           id="path16" />
      </g>
    </g>
  </g>
  <g
     fill="#000000"
     fill-opacity="1"
     id="g22"
     transform="translate(-27.070099,-24.78125)">
    <g
       transform="translate(117.91029,73.270241)"
       id="g21">
      <g
         id="g20">
        <path
           d="m 30.21875,0.0625 c -0.804688,0 -1.46875,-0.265625 -2,-0.796875 -0.523438,-0.53125 -0.78125,-1.195313 -0.78125,-2 v -13.46875 c 0,-2.082031 -0.386719,-3.78125 -1.15625,-5.09375 -0.773438,-1.3125 -1.804688,-2.285156 -3.09375,-2.921875 -1.292969,-0.644531 -2.78125,-0.96875 -4.46875,-0.96875 -1.53125,0 -2.917969,0.3125 -4.15625,0.9375 -1.242188,0.617188 -2.226562,1.445312 -2.953125,2.484375 -0.730469,1.042969 -1.09375,2.242187 -1.09375,3.59375 H 7.0625 c 0,-2.300781 0.554688,-4.351563 1.671875,-6.15625 1.113281,-1.8125 2.632813,-3.242187 4.5625,-4.296875 1.9375,-1.0625 4.109375,-1.59375 6.515625,-1.59375 2.519531,0 4.773438,0.542969 6.765625,1.625 1.988281,1.074219 3.554687,2.652344 4.703125,4.734375 1.15625,2.074219 1.734375,4.625 1.734375,7.65625 v 13.46875 c 0,0.804687 -0.265625,1.46875 -0.796875,2 -0.53125,0.53125 -1.199219,0.796875 -2,0.796875 z m -22.5,0 c -0.804688,0 -1.46875,-0.265625 -2,-0.796875 -0.53125,-0.53125 -0.796875,-1.195313 -0.796875,-2 V -27.15625 c 0,-0.84375 0.265625,-1.519531 0.796875,-2.03125 0.53125,-0.507812 1.195312,-0.765625 2,-0.765625 0.84375,0 1.519531,0.257813 2.03125,0.765625 0.507812,0.511719 0.765625,1.1875 0.765625,2.03125 v 24.421875 c 0,0.804687 -0.257813,1.46875 -0.765625,2 C 9.238281,-0.203125 8.5625,0.0625 7.71875,0.0625 Z m 0,0"
           id="path19" />
      </g>
    </g>
  </g>
  <g
     fill="#000000"
     fill-opacity="1"
     id="g25"
     transform="translate(-27.070099,-24.78125)">
    <g
       transform="translate(153.88269,73.270241)"
       id="g24">
      <g
         id="g23">
        <path
           d="m 18.5,0.21875 c -2.84375,0 -5.40625,-0.664062 -7.6875,-2 -2.28125,-1.332031 -4.089844,-3.144531 -5.421875,-5.4375 -1.335937,-2.300781 -2,-4.894531 -2,-7.78125 0,-2.882812 0.609375,-5.46875 1.828125,-7.75 1.226562,-2.28125 2.898438,-4.085938 5.015625,-5.421875 2.113281,-1.332031 4.503906,-2 7.171875,-2 2.15625,0 4.144531,0.449219 5.96875,1.34375 1.820312,0.898437 3.359375,2.109375 4.609375,3.640625 v -14.78125 c 0,-0.84375 0.257813,-1.519531 0.78125,-2.03125 0.53125,-0.507812 1.195313,-0.765625 2,-0.765625 0.84375,0 1.519531,0.257813 2.03125,0.765625 0.507813,0.511719 0.765625,1.1875 0.765625,2.03125 V -15 c 0,2.886719 -0.667969,5.480469 -2,7.78125 -1.335938,2.292969 -3.132812,4.105469 -5.390625,5.4375 -2.261719,1.335938 -4.820313,2 -7.671875,2 z m 0,-4.921875 c 1.863281,0 3.523438,-0.445313 4.984375,-1.34375 1.457031,-0.894531 2.609375,-2.125 3.453125,-3.6875 0.84375,-1.570313 1.265625,-3.328125 1.265625,-5.265625 0,-1.96875 -0.421875,-3.71875 -1.265625,-5.25 -0.84375,-1.539062 -1.996094,-2.753906 -3.453125,-3.640625 -1.460937,-0.894531 -3.121094,-1.34375 -4.984375,-1.34375 -1.824219,0 -3.476562,0.449219 -4.953125,1.34375 -1.480469,0.886719 -2.648437,2.101563 -3.5,3.640625 -0.855469,1.53125 -1.28125,3.28125 -1.28125,5.25 0,1.9375 0.425781,3.695312 1.28125,5.265625 0.851563,1.5625 2.019531,2.792969 3.5,3.6875 1.476563,0.898437 3.128906,1.34375 4.953125,1.34375 z m 0,0"
           id="path22" />
      </g>
    </g>
  </g>
  <g
     fill="#000000"
     fill-opacity="1"
     id="g28"
     transform="translate(-27.070099,-24.78125)">
    <g
       transform="translate(191.0049,73.270241)"
       id="g27">
      <g
         id="g26">
        <path
           d="m 8.265625,0 c -0.804687,0 -1.46875,-0.265625 -2,-0.796875 -0.53125,-0.53125 -0.796875,-1.195313 -0.796875,-2 V -27.15625 c 0,-0.84375 0.265625,-1.519531 0.796875,-2.03125 0.53125,-0.507812 1.195313,-0.765625 2,-0.765625 0.84375,0 1.519531,0.257813 2.03125,0.765625 0.507813,0.511719 0.765625,1.1875 0.765625,2.03125 v 24.359375 c 0,0.804687 -0.257812,1.46875 -0.765625,2 C 9.785156,-0.265625 9.109375,0 8.265625,0 Z m 0,-34.828125 c -0.992187,0 -1.84375,-0.351563 -2.5625,-1.0625 -0.710937,-0.707031 -1.0625,-1.554687 -1.0625,-2.546875 0,-0.976562 0.351563,-1.820312 1.0625,-2.53125 0.71875,-0.71875 1.570313,-1.078125 2.5625,-1.078125 0.976563,0 1.820313,0.359375 2.53125,1.078125 0.71875,0.710938 1.078125,1.554688 1.078125,2.53125 0,0.992188 -0.359375,1.839844 -1.078125,2.546875 -0.710937,0.710937 -1.554687,1.0625 -2.53125,1.0625 z m 0,0"
           id="path25" />
      </g>
    </g>
  </g>
  <g
     fill="#000000"
     fill-opacity="1"
     id="g31"
     transform="translate(-27.070099,-24.78125)">
    <g
       transform="translate(206.1713,73.270241)"
       id="g30">
      <g
         id="g29">
        <path
           d="m 15.828125,0.21875 c -2.5625,0 -4.933594,-0.390625 -7.109375,-1.171875 C 6.550781,-1.742188 4.867188,-2.738281 3.671875,-3.9375 c -0.554687,-0.582031 -0.78125,-1.25 -0.6875,-2 0.09375,-0.75 0.445313,-1.363281 1.0625,-1.84375 0.726563,-0.582031 1.445313,-0.828125 2.15625,-0.734375 0.71875,0.09375 1.332031,0.414063 1.84375,0.953125 0.625,0.699219 1.617187,1.351562 2.984375,1.953125 1.363281,0.605469 2.890625,0.90625 4.578125,0.90625 2.113281,0 3.726563,-0.34375 4.84375,-1.03125 1.113281,-0.695313 1.6875,-1.597656 1.71875,-2.703125 0.03906,-1.09375 -0.480469,-2.039062 -1.5625,-2.84375 -1.074219,-0.800781 -3.03125,-1.457031 -5.875,-1.96875 -3.6875,-0.726562 -6.367187,-1.820312 -8.03125,-3.28125 -1.65625,-1.457031 -2.484375,-3.25 -2.484375,-5.375 0,-1.851562 0.546875,-3.390625 1.640625,-4.609375 1.09375,-1.226563 2.492187,-2.144531 4.203125,-2.75 1.71875,-0.601563 3.507812,-0.90625 5.375,-0.90625 2.40625,0 4.539062,0.386719 6.40625,1.15625 1.863281,0.761719 3.34375,1.820313 4.4375,3.171875 0.507812,0.585938 0.742188,1.199219 0.703125,1.84375 -0.03125,0.636719 -0.339844,1.171875 -0.921875,1.609375 -0.585938,0.398437 -1.277344,0.523437 -2.078125,0.375 C 23.179688,-22.160156 22.503906,-22.488281 21.953125,-23 21.046875,-23.875 20.0625,-24.472656 19,-24.796875 c -1.0625,-0.332031 -2.289062,-0.5 -3.671875,-0.5 -1.605469,0 -2.964844,0.277344 -4.078125,0.828125 -1.117188,0.542969 -1.671875,1.34375 -1.671875,2.40625 0,0.65625 0.171875,1.25 0.515625,1.78125 0.351562,0.53125 1.039062,1.007812 2.0625,1.421875 1.019531,0.417969 2.515625,0.828125 4.484375,1.234375 2.738281,0.542969 4.898437,1.234375 6.484375,2.078125 1.59375,0.835937 2.734375,1.808594 3.421875,2.921875 0.695313,1.117188 1.046875,2.402344 1.046875,3.859375 0,1.6875 -0.449219,3.210937 -1.34375,4.5625 -0.898438,1.34375 -2.214844,2.417969 -3.953125,3.21875 -1.730469,0.804687 -3.886719,1.203125 -6.46875,1.203125 z m 0,0"
           id="path28" />
      </g>
    </g>
  </g>
  <g
     fill="#ffffff"
     fill-opacity="1"
     id="g34"
     transform="translate(-27.070099,-24.78125)">
    <g
       transform="translate(246.10752,73.150816)"
       id="g33">
      <g
         id="g32">
        <path
           d="m 17.734375,0.21875 c -2.71875,0 -5.15625,-0.675781 -7.3125,-2.03125 C 8.265625,-3.164062 6.5625,-5.003906 5.3125,-7.328125 4.070312,-9.648438 3.453125,-12.28125 3.453125,-15.21875 c 0,-2.9375 0.675781,-5.578125 2.03125,-7.921875 1.363281,-2.34375 3.207031,-4.191406 5.53125,-5.546875 2.320313,-1.351562 4.929687,-2.03125 7.828125,-2.03125 2.894531,0 5.492188,0.679688 7.796875,2.03125 2.3125,1.355469 4.144531,3.203125 5.5,5.546875 1.351563,2.34375 2.03125,4.984375 2.03125,7.921875 H 32 c 0,2.9375 -0.625,5.570312 -1.875,7.890625 -1.242188,2.324219 -2.9375,4.164063 -5.09375,5.515625 -2.15625,1.355469 -4.589844,2.03125 -7.296875,2.03125 z m 1.109375,-5.015625 c 1.894531,0 3.582031,-0.453125 5.0625,-1.359375 1.488281,-0.914062 2.660156,-2.160156 3.515625,-3.734375 0.863281,-1.582031 1.296875,-3.359375 1.296875,-5.328125 0,-2.007812 -0.433594,-3.800781 -1.296875,-5.375 -0.855469,-1.582031 -2.027344,-2.828125 -3.515625,-3.734375 -1.480469,-0.914063 -3.167969,-1.375 -5.0625,-1.375 -1.855469,0 -3.539062,0.460937 -5.046875,1.375 -1.5,0.90625 -2.6875,2.152344 -3.5625,3.734375 -0.875,1.574219 -1.3125,3.367188 -1.3125,5.375 0,1.96875 0.4375,3.746094 1.3125,5.328125 0.875,1.574219 2.0625,2.820313 3.5625,3.734375 1.507813,0.90625 3.191406,1.359375 5.046875,1.359375 z M 31.328125,0.0625 c -0.8125,0 -1.492187,-0.269531 -2.03125,-0.8125 -0.542969,-0.539062 -0.8125,-1.21875 -0.8125,-2.03125 v -8.53125 l 1.0625,-5.921875 4.625,2.015625 v 12.4375 c 0,0.8125 -0.273437,1.492188 -0.8125,2.03125 -0.53125,0.542969 -1.210937,0.8125 -2.03125,0.8125 z m 0,0"
           id="path31" />
      </g>
    </g>
  </g>
  <g
     fill="#ffffff"
     fill-opacity="1"
     id="g37"
     transform="translate(-27.070099,-24.78125)">
    <g
       transform="translate(282.34122,73.150816)"
       id="g36">
      <g
         id="g35">
        <path
           d="M 8.421875,0 C 7.597656,0 6.914062,-0.265625 6.375,-0.796875 5.84375,-1.335938 5.578125,-2.019531 5.578125,-2.84375 v -24.8125 c 0,-0.851562 0.265625,-1.539062 0.796875,-2.0625 C 6.914062,-30.238281 7.597656,-30.5 8.421875,-30.5 c 0.851563,0 1.539063,0.261719 2.0625,0.78125 0.519531,0.523438 0.78125,1.210938 0.78125,2.0625 v 24.8125 c 0,0.824219 -0.261719,1.507812 -0.78125,2.046875 C 9.960938,-0.265625 9.273438,0 8.421875,0 Z m 0,-35.453125 c -1,0 -1.867187,-0.359375 -2.59375,-1.078125 -0.730469,-0.726562 -1.09375,-1.597656 -1.09375,-2.609375 0,-1 0.363281,-1.859375 1.09375,-2.578125 0.726563,-0.726562 1.59375,-1.09375 2.59375,-1.09375 1,0 1.859375,0.367188 2.578125,1.09375 0.726562,0.71875 1.09375,1.578125 1.09375,2.578125 0,1.011719 -0.367188,1.882813 -1.09375,2.609375 -0.71875,0.71875 -1.578125,1.078125 -2.578125,1.078125 z m 0,0"
           id="path34" />
      </g>
    </g>
  </g>
</svg>
